<svg width="400" height="245" viewBox="0 0 400 245" fill="none" xmlns="http://www.w3.org/2000/svg">
<path fill-rule="evenodd" clip-rule="evenodd" d="M246.602 149.653C245.275 121.677 225.196 113.219 199.833 113.219C175.817 113.219 154.391 121.677 153.064 149.653V167.859L135.368 212.617C134.045 216.011 134.556 217.616 136.632 220.203C146.154 229.488 165.199 238.238 165.199 238.238C188.963 246.754 215.254 247.259 238.765 236.705C238.765 236.705 254.859 228.175 263.035 220.203C265.111 217.616 265.622 216.011 264.299 212.617L246.602 167.859V149.653ZM200.086 158.429C200.001 158.41 199.917 158.391 199.833 158.371C199.749 158.391 199.665 158.41 199.58 158.429V158.311C198.464 158.039 197.471 157.727 197.068 157.536C196.542 157.286 196.032 156.983 195.22 156.498V156.495V156.489C194.612 156.126 193.821 155.662 192.739 155.044L192.707 155.023L192.676 155.003C185.684 151.305 178.453 151.252 172.293 154.187C166.191 157.094 161.372 162.815 158.784 170.28L142.114 213.734C141.111 216.938 145.727 218.685 146.823 215.545C147.919 212.405 163.508 172.052 163.508 172.052C163.518 172.026 163.53 171.999 163.54 171.972C165.758 165.549 169.779 160.989 174.474 158.753C179.111 156.543 184.638 156.486 190.274 159.455C191.038 159.893 191.713 160.291 192.312 160.647V160.653C193.358 161.274 194.188 161.765 194.904 162.105C195.912 162.584 197.932 163.137 199.833 163.402C201.734 163.137 203.754 162.584 204.763 162.105C205.479 161.765 206.309 161.274 207.354 160.653V160.647C207.954 160.291 208.628 159.893 209.392 159.455C215.029 156.486 220.555 156.543 225.193 158.753C229.887 160.989 233.908 165.549 236.127 171.972V172.004C236.131 172.016 236.138 172.028 236.143 172.04L236.158 172.052C236.158 172.052 251.747 212.405 252.844 215.545C253.94 218.685 258.555 216.938 257.552 213.734L240.883 170.28C238.294 162.815 233.475 157.094 227.373 154.187C221.213 151.252 213.982 151.305 206.991 155.003L206.959 155.023L206.928 155.044C205.842 155.665 205.056 156.13 204.447 156.493V156.495L204.431 156.498V156.501C203.621 156.984 203.124 157.286 202.598 157.536C202.196 157.727 201.203 158.039 200.086 158.311V158.429ZM167.221 178.48C167.221 170.938 173.333 164.825 180.873 164.825H186.103C191.315 164.825 195.536 169.051 195.536 174.265V178.48C195.536 180.993 193.498 183.031 190.985 183.031H171.772C169.259 183.031 167.221 180.993 167.221 178.48ZM232.445 178.48C232.445 170.938 226.333 164.825 218.794 164.825H213.564C208.351 164.825 204.131 169.051 204.131 174.265V178.48C204.131 180.993 206.168 183.031 208.681 183.031H227.895C230.408 183.031 232.445 180.993 232.445 178.48ZM199.833 186.571C196.063 186.571 193.007 189.628 193.007 193.399V201.238H206.659V193.399C206.659 189.628 203.603 186.571 199.833 186.571ZM195.536 205.789C192.743 205.789 190.479 208.053 190.479 210.847V224.501H197.052V205.789H195.536ZM185.929 211.352C183.136 211.352 180.873 213.617 180.873 216.41V224.501H185.929V211.352ZM218.794 216.41C218.794 213.617 216.53 211.352 213.738 211.352V224.501H218.794V216.41ZM203.625 205.789H202.108V224.501H208.681V210.847C208.681 208.053 206.418 205.789 203.625 205.789ZM172.277 228.041C174.232 228.041 175.817 226.457 175.817 224.501C175.817 222.546 174.232 220.961 172.277 220.961C170.323 220.961 168.738 222.546 168.738 224.501C168.738 226.457 170.323 228.041 172.277 228.041ZM230.928 224.501C230.928 226.457 229.344 228.041 227.389 228.041C225.434 228.041 223.85 226.457 223.85 224.501C223.85 222.546 225.434 220.961 227.389 220.961C229.344 220.961 230.928 222.546 230.928 224.501Z" fill="black"/>
<path fill-rule="evenodd" clip-rule="evenodd" d="M0 83.6583V55.767H58.7127C58.9056 55.767 59.3003 55.8045 59.8295 55.8546C63.8304 56.234 75.519 57.3424 65.8079 48.5153C53.754 37.5551 52.4201 28.4314 52.0188 21.1797C51.6197 13.928 58.7127 0 73.2184 0H192.443V25.0845H155.624V83.6583H128.306V25.0845H93.8601C88.8374 25.0845 82.1436 25.0845 88.1231 30.6627L98.5586 43.0275C104.022 49.1764 103.716 52.842 103.366 57.0292C103.276 58.0969 103.184 59.1986 103.184 60.384C103.184 74.8896 91.0688 83.6583 81.5857 83.6583H0ZM208.779 0H252.849L276.273 83.6605H249.341L245.035 71.9462H216.028L211.568 83.6605H184.073L208.779 0ZM231.649 21.1797L222.166 51.8623H240.577L231.649 21.1797ZM352.702 51.8623C352.702 51.8623 352.702 55.767 363.3 55.767C373.899 55.767 399.996 55.767 399.991 55.7692V83.6605H352.7C343.666 83.6605 343.065 83.1091 336.478 77.073L336.362 76.9666C329.668 70.8305 316.84 55.7692 316.84 55.7692V83.6605H286.713V0H346.003C356.607 0 369.836 11.5379 369.836 25.0845C369.836 38.631 361.784 51.8623 352.702 51.8623ZM316.844 36.2432H335.965C346.248 36.2432 344.731 21.1797 335.965 21.1797H316.844V36.2432ZM30.8215 94.2569H0L24.6854 177.937H49.7875L61.9053 138.327L72.6605 177.937H97.2048L121.751 94.2569H94.9757L86.6062 122.153L78.2388 94.2569H45.8827L38.631 122.153L30.8215 94.2569ZM140.936 94.7398H185.006L188.684 107.871C179.345 108.934 170.757 111.486 163.869 116.124L163.809 115.917L163.712 116.23C154.458 122.526 148.305 132.625 147.576 147.992V168.29L147.03 169.724L143.601 178.398H116.233L140.936 94.7398ZM252.09 151.843C255.398 155.679 264.979 166.67 270.452 171.689L270.563 171.79C277.155 177.831 277.755 178.38 286.786 178.38L352.702 177.937C362.185 177.937 376.534 169.169 376.534 154.665L376.534 154.392C376.536 148.725 376.537 145.489 369.789 137.893L359.352 125.526C353.37 119.95 358.84 119.363 363.856 119.363V119.366H400V94.2591H343.622C329.123 94.2591 322.853 108.793 323.254 116.045C323.655 123.297 324.989 132.416 337.043 143.376C346.753 152.204 335.064 151.095 331.065 150.716C330.537 150.666 330.143 150.628 329.95 150.628C329.95 150.628 304.175 150.602 297.479 150.602C290.785 150.602 286.79 146.584 286.79 146.584C295.876 146.584 303.928 133.355 303.928 119.807C303.928 106.262 290.695 94.7222 280.096 94.7222H220.806V109.483C238.576 113.798 250.999 124.995 252.09 147.992V151.843ZM250.926 130.963H270.051C280.334 130.963 278.82 115.9 270.051 115.9H250.926V130.963Z" fill="black"/>
<linearGradient id="my-cool-gradient" x2="1" y2="1">
<stop offset="0%" stop-color="#447799" />
<stop offset="50%" stop-color="#224488" />
<stop offset="100%" stop-color="#112266" />
</linearGradient>
</svg>
