<svg width="509" height="258" viewBox="0 0 509 258" fill="none" xmlns="http://www.w3.org/2000/svg">
<path fill-rule="evenodd" clip-rule="evenodd" d="M258.188 0L228.681 58.9714L154.913 213.771L132.783 258H162.29C184.42 221.143 213.928 191.657 258.188 191.657C295.072 191.657 331.957 221.143 346.71 258H376.217L354.087 213.771L280.319 58.9714L258.188 0ZM258.188 169.543C272.942 169.543 295.072 169.543 317.203 184.286L258.188 58.9714L199.174 184.286C213.928 169.543 236.058 169.543 258.188 169.543ZM0 103.2H199.174L206.551 88.4571L0 95.8286V103.2ZM0 228.514H140.159L132.783 243.257L0 235.886V228.514ZM509 228.514H376.217V243.257L509 235.886V228.514ZM509 103.2H317.203L309.826 88.4571L509 95.8286V103.2Z" fill="#99CC33"/>
<path fill-rule="evenodd" clip-rule="evenodd" d="M420.478 117.943H494.246V140.057H442.609V154.8H479.493V176.914H442.609V199.029H494.246V213.771H420.478V199.029V176.914V154.8V140.057V117.943ZM331.957 117.943H413.101V140.057H354.087L383.594 199.029H390.971V162.171H376.217V140.057H413.101V147.429V162.171V199.029V213.771H368.841L331.957 140.057V117.943ZM44.2609 140.057V199.029H51.6377V213.771H44.2609H29.5072H22.1304V199.029H29.5072V140.057H22.1304V117.943H51.6377V140.057H44.2609ZM162.29 117.943V169.543L147.536 213.771V162.171L118.029 213.771H110.652L81.1449 162.171V213.771H66.3913V117.943H81.1449L110.652 184.286L147.536 117.943H162.29Z" fill="#FEFEFE"/>
</svg>
