<svg width="473" height="97" viewBox="0 0 473 97" fill="none" xmlns="http://www.w3.org/2000/svg">
<path fill-rule="evenodd" clip-rule="evenodd" d="M398.478 0.942856H472.246V23.0571H420.609V37.8H457.493V59.9143H420.609V82.0286H472.246V96.7714H398.478V82.0286V59.9143V37.8V23.0571V0.942856ZM309.957 0.942856H391.101V23.0571H332.087L361.594 82.0286H368.971V45.1714H354.217V23.0571H391.101V30.4286V45.1714V82.0286V96.7714H346.841L309.957 23.0571V0.942856ZM22.2609 23.0571V82.0286H29.6377V96.7714H22.2609H7.50724H0.130432V82.0286H7.50724V23.0571H0.130432V0.942856H29.6377V23.0571H22.2609ZM140.29 0.942856V52.5429L125.536 96.7714V45.1714L96.029 96.7714H88.6522L59.1449 45.1714V96.7714H44.3913V0.942856H59.1449L88.6522 67.2857L125.536 0.942856H140.29Z" fill="#FEFEFE"/>
</svg>
